<?xml version="1.0" encoding="UTF-8" standalone="no"?>
<?xml-stylesheet href="/css/iconos.css" type="text/css"?>
<svg xmlns="http://www.w3.org/2000/svg" version="1.1">
    <view id="icono" viewBox="0 0 470 470" />
    <path d="M70.8,96.9c24-28.9,50.3-44.5,62.8-51.2,12.1-6.5,39.1-19.3,75.6-23.4,16.8-1.9,83.3-7.4,146.4,36.4,33,22.9,52.4,50.4,62.8,68.5,2.1,3.6,35.1,62.7,27.3,130.6-.1,1-.4,3.6-.9,7-6.8,45.7-27,77.8-32.2,85.7-7.4,11.4-29.3,42.6-70.1,66.7-17.6,10.4-46.2,23.9-83.5,28.4-19.8,2.4-36.7,1.5-49,.1-1.8-.2-4.3-.5-7.4-1-33.5-5.1-57.7-16.8-64.9-20.4-17.6-8.9-33.9-20.3-48.9-34.4-26.7-25-40.5-50.3-45.1-59.4-5.8-11.4-17.7-37.3-21.5-71.8-9.9-89.2,42.5-154.4,48.6-161.7h0ZM285.8,178.1c.9.4,1.5.6,2.1.9,4.6,2.6,5.8,2.3,8.6-2.1,1.5-2.4,3.1-4.8,4.7-7.1,1.9-2.7,1.3-4.7-1.4-6.5-20.5-13.3-41-26.6-61.4-40-2.7-1.8-5-1.8-7.8,0-20,13.3-40.1,26.5-60.2,39.7-4.1,2.7-4.3,3.7-1.6,7.9.5.8,1.1,1.6,1.6,2.4,3.2,5,7.6,6.6,12.9,4.9s.8.1.8.5v133.7c0,3.6,1.1,4.8,4.6,4.6,4.6-.3,9.2-.3,13.9,0,3.4.2,4.5-.9,4.4-4.3-.2-13.6,0-27.2,0-40.8s2.6-12.2,7-16.9c8.1-8.7,20-11.5,31-7.2,10.5,4.1,17.6,14.3,17.6,26v37.9c0,12.6,1.8,5.2,5.4,5.2s8.2-.3,12.2,0c4.2.4,5.2-1.1,5.2-5.2-.1-42.7,0-85.3,0-128s-.4-3.5.7-5.6h0M235,324.1h-121.9c-2.9,0-4.2,1.5-4.2,4.3v11.4c0,7.1.2,7.3,7.4,7.3h239.7c2.9,0,4.2-1.5,4.2-4.3v-12.2c0-5.9-.5-6.4-6.6-6.4h-118.6ZM291.7,262.1v49.3c0,3.6,1.9,5.4,5.6,5.4h34.9c5.5,0,10-4.5,10-10v-92c0-6.8-.6-7.4-5.5-7.6-6.6-.3-4,4.6-4,7.4-.2,14.8-.1,29.6,0,44.4,0,2.9-.3,5.7-1.8,8.3-3.6,6.4-10.9,9.8-17.6,8.2-7.5-1.8-12.6-8.1-12.6-16,0-16-.1-32.1,0-48.1,0-3.6-1.3-4.3-4.5-4.3s-4.5.8-4.5,4.3c.2,16.9,0,33.7,0,50.6h0ZM176.8,262.3v-51c0-1.5.7-3.3-1.8-3.9-4.7-1.2-6.5.1-6.5,4.9v46.9c0,12.6-12.7,20.5-23.4,14.8-6.2-3.3-9-8.8-9-15.7v-46.9c0-1.4.6-3-1.3-3.8-4.1-1.7-7.7.6-7.7,5.2v100.3c0,3.1,1.1,3.9,4,3.9,13.9-.1,27.7-.2,41.6,0,3.4,0,4.3-1.2,4.3-4.4-.1-16.7,0-33.4,0-50.1h0l-.2-.2ZM214.1,292.1h0v20.6c0,2.3,1.9,4.2,4.2,4.2h33.1c2.9,0,3.8-1,3.7-3.8,0-13.7,0-27.4-.1-41.2-.2-10.7-9.3-18.9-20.5-18.9s-20.2,8.5-20.4,19.1c-.2,6.7,0,13.3,0,20h0ZM161.2,234.9v-24c0-2.6-.8-3.7-3.5-3.5-3.5.2-7.1.2-10.6,0-3-.2-4,.8-4,3.9.1,15.6,0,31.2,0,46.8s3.6,10.5,8.9,10.5,8.9-4.1,9-10.4v-23.2h.2ZM325.8,234.5v-23.6c0-2.6-.8-3.7-3.5-3.6-3.8.2-7.6,0-11.4,0s-3.1.4-3.1,2.7v50.5c0,3.4,2.2,5.8,5.2,7.2,3.1,1.5,6,1,8.8-1,3.2-2.4,3.8-5.8,3.9-9.4v-22.8h.1Z"/>
    <path d="M261.3,198.1c0,11.8-10.2,22-21.9,21.9-11.8-.1-21.7-10.3-21.6-22.1,0-11.8,10.2-22,21.8-21.9,11.7.1,21.7,10.3,21.6,22.1h.1ZM254.1,198.2c0-8-6.4-14.8-14.4-15-7.8-.2-14.6,6.5-14.7,14.5-.1,8.3,6.5,15.1,14.5,15.2,8,0,14.5-6.5,14.5-14.7h0Z"/>
</svg>
 